<svg width="56" height="45" viewBox="0 0 56 45" fill="none" xmlns="http://www.w3.org/2000/svg">
<path fill-rule="evenodd" clip-rule="evenodd" d="M55.0799 14.5509C55.2545 14.725 55.393 14.9319 55.4875 15.1597C55.5821 15.3875 55.6307 15.6317 55.6307 15.8784C55.6307 16.125 55.5821 16.3692 55.4875 16.597C55.393 16.8248 55.2545 17.0317 55.0799 17.2059L43.8299 28.4559C43.6557 28.6305 43.4488 28.769 43.221 28.8635C42.9932 28.958 42.749 29.0067 42.5024 29.0067C42.2557 29.0067 42.0115 28.958 41.7837 28.8635C41.5559 28.769 41.349 28.6305 41.1749 28.4559L35.5499 22.8309C35.1978 22.4788 35 22.0013 35 21.5034C35 21.0054 35.1978 20.5279 35.5499 20.1759C35.9019 19.8238 36.3795 19.626 36.8774 19.626C37.3753 19.626 37.8528 19.8238 38.2049 20.1759L42.5024 24.4771L52.4249 14.5509C52.599 14.3762 52.8059 14.2377 53.0337 14.1432C53.2615 14.0487 53.5057 14 53.7524 14C53.999 14 54.2432 14.0487 54.471 14.1432C54.6988 14.2377 54.9057 14.3762 55.0799 14.5509Z" fill="#F7AD48"/>
<path d="M3.75 45C3.75 45 0 45 0 41.25C0 37.5 3.75 26.25 22.5 26.25C41.25 26.25 45 37.5 45 41.25C45 45 41.25 45 41.25 45H3.75ZM22.5 22.5C25.4837 22.5 28.3452 21.3147 30.455 19.205C32.5647 17.0952 33.75 14.2337 33.75 11.25C33.75 8.26631 32.5647 5.40483 30.455 3.29505C28.3452 1.18526 25.4837 0 22.5 0C19.5163 0 16.6548 1.18526 14.545 3.29505C12.4353 5.40483 11.25 8.26631 11.25 11.25C11.25 14.2337 12.4353 17.0952 14.545 19.205C16.6548 21.3147 19.5163 22.5 22.5 22.5Z" fill="#F7AD48"/>
</svg>
