<svg width="40" height="45" viewBox="0 0 40 45" fill="none" xmlns="http://www.w3.org/2000/svg">
<path d="M15.4688 0C14.3499 0 13.2768 0.444474 12.4856 1.23564C11.6945 2.02681 11.25 3.09987 11.25 4.21875V7.03125C11.25 8.15013 11.6945 9.22319 12.4856 10.0144C13.2768 10.8055 14.3499 11.25 15.4688 11.25H23.9062C25.0251 11.25 26.0982 10.8055 26.8894 10.0144C27.6805 9.22319 28.125 8.15013 28.125 7.03125V4.21875C28.125 3.09987 27.6805 2.02681 26.8894 1.23564C26.0982 0.444474 25.0251 0 23.9062 0L15.4688 0ZM23.9062 2.8125C24.2792 2.8125 24.6369 2.96066 24.9006 3.22438C25.1643 3.4881 25.3125 3.84579 25.3125 4.21875V7.03125C25.3125 7.40421 25.1643 7.7619 24.9006 8.02562C24.6369 8.28934 24.2792 8.4375 23.9062 8.4375H15.4688C15.0958 8.4375 14.7381 8.28934 14.4744 8.02562C14.2107 7.7619 14.0625 7.40421 14.0625 7.03125V4.21875C14.0625 3.84579 14.2107 3.4881 14.4744 3.22438C14.7381 2.96066 15.0958 2.8125 15.4688 2.8125H23.9062Z" fill="#F7AD48"/>
<path d="M8.4375 4.21875H5.625C4.13316 4.21875 2.70242 4.81138 1.64752 5.86627C0.592632 6.92117 0 8.35191 0 9.84375V39.375C0 40.8668 0.592632 42.2976 1.64752 43.3525C2.70242 44.4074 4.13316 45 5.625 45H33.75C35.2418 45 36.6726 44.4074 37.7275 43.3525C38.7824 42.2976 39.375 40.8668 39.375 39.375V9.84375C39.375 8.35191 38.7824 6.92117 37.7275 5.86627C36.6726 4.81138 35.2418 4.21875 33.75 4.21875H30.9375V7.03125C30.9375 7.95461 30.7556 8.86892 30.4023 9.72199C30.0489 10.5751 29.531 11.3502 28.8781 12.0031C28.2252 12.656 27.4501 13.1739 26.597 13.5273C25.7439 13.8806 24.8296 14.0625 23.9062 14.0625H15.4688C13.6039 14.0625 11.8155 13.3217 10.4969 12.0031C9.17829 10.6845 8.4375 8.89605 8.4375 7.03125V4.21875ZM25.3125 22.5C25.3125 21.7541 25.6088 21.0387 26.1363 20.5113C26.6637 19.9838 27.3791 19.6875 28.125 19.6875C28.8709 19.6875 29.5863 19.9838 30.1137 20.5113C30.6412 21.0387 30.9375 21.7541 30.9375 22.5V36.5625C30.9375 37.3084 30.6412 38.0238 30.1137 38.5512C29.5863 39.0787 28.8709 39.375 28.125 39.375C27.3791 39.375 26.6637 39.0787 26.1363 38.5512C25.6088 38.0238 25.3125 37.3084 25.3125 36.5625V22.5ZM8.4375 33.75C8.4375 33.0041 8.73382 32.2887 9.26126 31.7613C9.78871 31.2338 10.5041 30.9375 11.25 30.9375C11.9959 30.9375 12.7113 31.2338 13.2387 31.7613C13.7662 32.2887 14.0625 33.0041 14.0625 33.75V36.5625C14.0625 37.3084 13.7662 38.0238 13.2387 38.5512C12.7113 39.0787 11.9959 39.375 11.25 39.375C10.5041 39.375 9.78871 39.0787 9.26126 38.5512C8.73382 38.0238 8.4375 37.3084 8.4375 36.5625V33.75ZM19.6875 25.3125C20.4334 25.3125 21.1488 25.6088 21.6762 26.1363C22.2037 26.6637 22.5 27.3791 22.5 28.125V36.5625C22.5 37.3084 22.2037 38.0238 21.6762 38.5512C21.1488 39.0787 20.4334 39.375 19.6875 39.375C18.9416 39.375 18.2262 39.0787 17.6988 38.5512C17.1713 38.0238 16.875 37.3084 16.875 36.5625V28.125C16.875 27.3791 17.1713 26.6637 17.6988 26.1363C18.2262 25.6088 18.9416 25.3125 19.6875 25.3125Z" fill="#F7AD48"/>
</svg>
