<svg width="45" height="45" viewBox="0 0 45 45" fill="none" xmlns="http://www.w3.org/2000/svg">
<path d="M44.9981 22.4587V22.5019C44.9981 34.9275 34.9248 45 22.4981 45C17.3404 45.0082 12.3379 43.2366 8.33507 39.9844L8.37632 40.0181C8.13941 39.8258 7.94554 39.5858 7.80727 39.3138C7.66901 39.0418 7.58943 38.7437 7.5737 38.439C7.55797 38.1342 7.60643 37.8296 7.71594 37.5448C7.82546 37.26 7.99358 37.0013 8.20943 36.7856L9.23139 35.7637C9.60842 35.3831 10.1125 35.1547 10.6472 35.1222C11.182 35.0897 11.71 35.2553 12.1304 35.5875L12.1266 35.5837C15.0733 37.9288 18.7302 39.2016 22.4962 39.1931C25.2203 39.1931 27.903 38.5266 30.3102 37.2517C32.7175 35.9767 34.7761 34.1322 36.3066 31.8789C37.8371 29.6257 38.7929 27.0321 39.0907 24.3246C39.3884 21.6171 39.0191 18.8779 38.0148 16.3459C37.0106 13.8139 35.402 11.5662 33.3293 9.79867C31.2566 8.03117 28.7829 6.79767 26.1239 6.20578C23.465 5.61389 20.7016 5.68159 18.0748 6.40298C15.448 7.12436 13.0377 8.47752 11.054 10.3444L11.0634 10.3369L15.6688 14.9419C15.8717 15.145 16.0098 15.4036 16.0656 15.6852C16.1215 15.9667 16.0926 16.2585 15.9826 16.5236C15.8726 16.7887 15.6864 17.0153 15.4477 17.1746C15.2089 17.3339 14.9283 17.4189 14.6412 17.4188H1.45137C1.06644 17.4188 0.697282 17.2659 0.425097 16.9937C0.152912 16.7215 0 16.3524 0 15.9675V2.77877C0.000741822 2.49214 0.0862412 2.21214 0.245742 1.97398C0.405242 1.73582 0.631619 1.55015 0.896394 1.44032C1.16117 1.33049 1.45251 1.30141 1.73377 1.35674C2.01503 1.41207 2.27365 1.54934 2.47708 1.75127L6.95683 6.23064C11.1385 2.22416 16.7086 -0.00865317 22.5 2.52034e-05C34.9117 2.52034e-05 44.9775 10.05 45 22.455V22.4569L44.9981 22.4587ZM28.5849 29.6044L29.4756 28.4587C29.6516 28.2336 29.7815 27.976 29.8578 27.7006C29.934 27.4252 29.9552 27.1374 29.92 26.8539C29.8848 26.5703 29.794 26.2964 29.6527 26.048C29.5114 25.7996 29.3225 25.5815 29.0968 25.4062L29.0912 25.4025L25.399 22.53V13.065C25.399 11.8631 24.4239 10.8863 23.2201 10.8863H21.7687C20.5667 10.8863 19.5898 11.8613 19.5898 13.065V25.365L25.5246 29.9794C25.9791 30.3352 26.5562 30.4961 27.1293 30.4269C27.7023 30.3576 28.2245 30.0638 28.5811 29.61L28.5849 29.6044Z" fill="#F7AD48"/>
</svg>
